# xmcd CD database file
#
# Track frame offsets:
#	150
#	21697
#	42047
#	65682
#	88235
#	110640
#	133532
#	150482
#	169412
#	196657
#
# Disc length: 2925 seconds
#
# Revision: 0
# Processed by: cddbd v1.5.1PL0 Copyright (c) Steve Scherf et al.
# Submitted via: CDex 1.51
#
DISCID=890b6b0a
DTITLE=Jimmy Swaggart - Lord, I Just Want To Thank You
DYEAR=1993
DGENRE=Country
TTITLE0=Hallelujia, Praise The Lamb
TTITLE1=One Day I Will
TTITLE2=Victory Is Mine
TTITLE3=God Will Take Care Of You
TTITLE4=Lord, I Just Want To Thank You
TTITLE5=Born Again
TTITLE6=If God Is Dead(Who's That Living In My Soul)
TTITLE7=Let's Go Up To The Upper Room
TTITLE8=Precious Lord, Take My Hand
TTITLE9=Precious Is Thy Name
EXTD=YEAR: 1993
EXTT0=
EXTT1=
EXTT2=
EXTT3=
EXTT4=
EXTT5=
EXTT6=
EXTT7=
EXTT8=
EXTT9=
PLAYORDER=
